<?xml version="1.0" encoding="UTF-8" standalone="no"?><!DOCTYPE svg PUBLIC "-//W3C//DTD SVG 1.1//EN" "http://www.w3.org/Graphics/SVG/1.1/DTD/svg11.dtd"><svg width="100%" height="100%" viewBox="0 0 331 826" version="1.1" xmlns="http://www.w3.org/2000/svg" xmlns:xlink="http://www.w3.org/1999/xlink" xml:space="preserve" xmlns:serif="http://www.serif.com/" style="fill-rule:evenodd;clip-rule:evenodd;stroke-linejoin:round;stroke-miterlimit:2;"><path d="M330.031,57.755c-0,18.335 -6.876,33.92 -20.627,46.755c-13.752,12.834 -29.795,19.251 -48.13,19.251c-16.501,0 -30.344,-5.225 -41.529,-15.676c-11.184,-10.451 -16.776,-23.927 -16.776,-40.429c-0,-17.968 6.967,-33.736 20.902,-47.304c13.934,-13.568 30.069,-20.352 48.404,-20.352c16.502,0 30.253,5.501 41.254,16.502c11.001,11.001 16.502,24.752 16.502,41.253Zm-50.605,726.068c-0,27.502 -13.751,41.254 -41.254,41.254c-48.404,-0 -88.558,-15.402 -120.461,-46.205c-31.903,-30.802 -47.855,-70.039 -47.855,-117.711c0.367,-17.601 3.117,-35.203 8.251,-52.804l74.257,-278.326l-111.11,-0c-27.503,-0 -41.254,-13.752 -41.254,-41.254c-0,-27.503 13.751,-41.254 41.254,-41.254l165.565,-0c27.136,-0 40.704,13.385 40.704,40.154c-0,4.033 -0.917,9.534 -2.75,16.501l-87.458,325.08c-2.934,11.001 -4.584,22.003 -4.951,33.004c0,24.935 7.976,44.554 23.927,58.855c15.952,14.301 36.579,21.452 61.881,21.452c27.503,-0 41.254,13.751 41.254,41.254Z" style="fill:#f96262;fill-rule:nonzero;"/></svg>